<svg width="468" height="143" viewBox="0 0 468 143" fill="none" xmlns="http://www.w3.org/2000/svg">
<rect width="468" height="143" fill="#716D6D"/>
<g clip-path="url(#clip0_8902_6092)">
<path d="M26.1144 26.3018H36.2288V119H46.362V72.6509C67.0796 72.6509 85.184 86.3476 94.8472 106.698H82.6836C76.2728 96.5915 67.0608 89.2287 56.4576 86.3247V99.0381C65.3312 102.216 72.776 109.465 77.3068 119H110C104.51 95.1966 90.26 75.875 71.7608 66.5C90.26 57.125 104.51 37.7805 110 14H77.3068C72.776 23.5351 65.3312 30.8064 56.4576 33.9619V46.6753C67.0608 43.7713 76.254 36.4085 82.6836 26.279H94.8472C85.1652 46.6296 67.0796 60.3262 46.362 60.3262V14H16V119H26.1144V26.3018Z" fill="#1FB497"/>
<path d="M121.859 113V22.0909H146.54V58.8452H147.783L175.126 22.0909H203.891L173.173 62.5739L204.601 113H175.126L154.707 78.9091L146.54 89.5625V113H121.859Z" fill="white"/>
<path d="M338.517 22.0909V113H317.92L285.072 65.2372H284.54V113H259.859V22.0909H280.811L313.126 69.6761H313.837V22.0909H338.517Z" fill="white"/>
<path d="M240.54 22.0909V113H215.859V22.0909H240.54Z" fill="white"/>
<path d="M442.928 67.5455C442.928 77.6662 440.96 86.2037 437.024 93.158C433.088 100.083 427.776 105.335 421.088 108.916C414.4 112.467 406.943 114.243 398.716 114.243C390.43 114.243 382.943 112.453 376.255 108.872C369.597 105.261 364.299 99.994 360.364 93.0692C356.457 86.1149 354.504 77.607 354.504 67.5455C354.504 57.4247 356.457 48.902 360.364 41.9773C364.299 35.023 369.597 29.7702 376.255 26.2191C382.943 22.6384 390.43 20.848 398.716 20.848C406.943 20.848 414.4 22.6384 421.088 26.2191C427.776 29.7702 433.088 35.023 437.024 41.9773C440.96 48.902 442.928 57.4247 442.928 67.5455ZM417.537 67.5455C417.537 62.1004 416.812 57.5135 415.362 53.7848C413.941 50.0265 411.826 47.1856 409.014 45.2621C406.232 43.3089 402.8 42.3324 398.716 42.3324C394.632 42.3324 391.185 43.3089 388.373 45.2621C385.592 47.1856 383.476 50.0265 382.026 53.7848C380.605 57.5135 379.895 62.1004 379.895 67.5455C379.895 72.9905 380.605 77.5922 382.026 81.3505C383.476 85.0792 385.592 87.9201 388.373 89.8732C391.185 91.7968 394.632 92.7585 398.716 92.7585C402.8 92.7585 406.232 91.7968 409.014 89.8732C411.826 87.9201 413.941 85.0792 415.362 81.3505C416.812 77.5922 417.537 72.9905 417.537 67.5455Z" fill="white"/>
</g>
<defs>
<clipPath id="clip0_8902_6092">
<rect width="468" height="143" fill="white"/>
</clipPath>
</defs>
</svg>
