<svg width="48" height="48" viewBox="0 0 48 48" fill="none" xmlns="http://www.w3.org/2000/svg">
<path d="M9.9812 10.9835H13.9624V41H17.951V25.9917C26.1058 25.9917 33.232 30.4268 37.0356 37.0166H32.2478C29.7244 33.7439 26.0984 31.3598 21.9248 30.4194V34.5362C25.4176 35.5653 28.348 37.9125 30.1314 41H43C40.8392 33.2922 35.23 27.0357 27.9484 24C35.23 20.9643 40.8392 14.7003 43 7H30.1314C28.348 10.0875 25.4176 12.4421 21.9248 13.4638V17.5806C26.0984 16.6402 29.717 14.2561 32.2478 10.976H37.0356C33.2246 17.5658 26.1058 22.0009 17.951 22.0009V7H6V41H9.9812V10.9835Z" fill="#1FB497"/>
</svg>
